<?xml version="1.0" standalone="no"?>
<!DOCTYPE svg PUBLIC "-//W3C//DTD SVG 20010904//EN"
 "http://www.w3.org/TR/2001/REC-SVG-20010904/DTD/svg10.dtd">
<svg version="1.0" xmlns="http://www.w3.org/2000/svg"
 width="800.000000pt" height="800.000000pt" viewBox="0 0 800.000000 800.000000"
 preserveAspectRatio="xMidYMid meet">
<metadata>
Created by potrace 1.16, written by Peter Selinger 2001-2019
</metadata>
<g transform="translate(0.000000,800.000000) scale(0.100000,-0.100000)"
fill="#000000" stroke="none">
<path d="M4895 6564 c-45 -69 -64 -191 -45 -294 10 -54 88 -280 90 -258 0 4
12 2 28 -4 57 -23 456 -167 458 -165 3 3 -196 490 -202 497 -3 2 -14 -1 -24
-8 -35 -22 -79 -14 -112 18 -27 27 -30 35 -24 73 l6 42 -74 63 c-42 34 -77 62
-79 62 -3 0 -12 -12 -22 -26z"/>
<path d="M5051 5386 l-463 -171 -222 -210 c-122 -115 -236 -223 -255 -238 -18
-15 -32 -29 -30 -31 21 -15 370 -211 397 -223 74 -31 137 5 198 115 20 37 38
68 40 70 2 3 42 -15 52 -23 2 -2 -18 -40 -43 -85 -43 -74 -47 -86 -43 -131 6
-61 29 -87 116 -136 35 -19 61 -40 59 -47 -3 -6 -8 -10 -13 -9 -5 1 -182 102
-394 224 -212 122 -394 224 -405 226 -22 4 -177 -76 -178 -92 -1 -9 1156 -684
1273 -742 53 -27 59 -28 195 -25 77 1 269 8 427 15 286 12 288 13 312 37 23
24 178 281 212 353 16 33 15 40 -15 165 l-31 131 50 86 c28 48 50 88 50 91 0
2 -65 4 -145 4 -137 0 -146 -1 -181 -25 -22 -15 -51 -25 -71 -25 -38 0 -102
26 -109 44 -3 7 -75 12 -217 14 l-212 4 -84 -148 c-77 -134 -85 -145 -94 -123
-12 33 -2 119 18 160 10 19 33 51 53 72 l36 37 -27 0 c-15 0 -27 2 -27 5 0 2
40 127 89 277 50 149 88 275 85 279 -2 5 -32 23 -65 41 l-60 33 33 5 c29 5 60
2 106 -11 9 -3 23 22 40 71 25 69 30 112 14 109 -4 -1 -216 -78 -471 -173z
m-91 -378 c0 -9 -106 -197 -118 -210 -4 -4 -17 1 -29 10 l-23 17 61 107 c59
102 63 106 85 96 13 -6 24 -15 24 -20z m866 -389 c117 -71 58 -259 -81 -259
-119 0 -187 158 -103 238 57 52 120 60 184 21z m-196 -328 c67 -47 88 -127 50
-189 -62 -102 -204 -94 -252 14 -34 78 -5 148 76 185 46 21 87 18 126 -10z"/>
<path d="M5901 5257 c-13 -6 -23 -15 -23 -20 1 -4 109 -113 241 -243 276 -271
251 -263 283 -89 l18 99 -22 22 c-13 12 -110 72 -217 133 -199 114 -229 125
-280 98z"/>
<path d="M2593 3988 c-32 -41 -93 -160 -93 -182 0 -15 -7 -27 -18 -30 -37 -12
-42 -38 -31 -158 6 -62 12 -123 15 -135 3 -15 45 -45 154 -107 l151 -87 197
37 c137 26 202 42 214 55 9 9 21 19 27 20 5 2 56 86 114 185 l105 182 -105 62
-105 62 -307 54 c-168 30 -307 54 -307 54 -1 0 -6 -6 -11 -12z m306 -413 c159
-91 205 -125 170 -125 -9 0 -394 217 -458 259 -7 5 -10 14 -7 20 8 13 2 16
295 -154z"/>
<path d="M2350 3538 c0 -9 -11 -23 -24 -31 -28 -19 -146 -224 -146 -255 0 -11
-11 -29 -24 -39 -27 -21 -123 -185 -152 -259 -28 -72 -27 -241 2 -304 l21 -46
-128 -222 -128 -222 -7 -155 c-5 -114 -4 -155 4 -155 7 0 12 -5 12 -10 0 -6
-45 -88 -100 -184 l-100 -172 0 -73 c0 -40 4 -70 9 -67 4 3 66 106 137 230
106 184 132 223 145 216 12 -7 50 13 143 73 l126 82 82 140 81 140 -122 238
c-67 130 -118 237 -114 237 4 0 145 -43 313 -94 l305 -95 27 32 c44 53 148
241 148 269 0 18 7 29 21 33 37 12 53 64 43 141 l-9 68 -204 88 c-112 48 -206
89 -208 91 -2 3 38 12 89 22 51 10 101 21 110 24 12 4 -18 26 -103 75 -66 37
-122 66 -125 64 -2 -3 0 -40 5 -84 4 -43 7 -80 6 -82 -1 -1 -30 64 -65 145
-66 158 -70 165 -70 141z m156 -479 c263 -151 258 -149 246 -161 -12 -12 -472
251 -472 270 0 6 4 12 9 12 4 0 102 -54 217 -121z m-376 -684 c40 -21 70 -62
70 -97 0 -43 -135 -275 -171 -294 -36 -18 -63 -18 -103 1 -38 18 -66 62 -66
102 0 40 134 269 168 288 35 18 66 19 102 0z"/>
</g>
</svg>
